<svg width="42" height="40" viewBox="0 0 42 40" fill="none" xmlns="http://www.w3.org/2000/svg">
<path d="M39.201 15.9999C39.4979 15.0168 39.655 13.9968 39.6676 12.9699C39.678 11.6223 39.4218 10.2859 38.9139 9.03757C38.406 7.78927 37.6563 6.6537 36.7079 5.69617C35.7595 4.73864 34.6312 3.97803 33.3879 3.45811C32.1445 2.93818 30.8106 2.66918 29.463 2.66658C27.7802 2.6599 26.1229 3.07722 24.644 3.88001C23.165 4.6828 21.9121 5.8452 21.001 7.25992C20.0898 5.8452 18.8369 4.6828 17.358 3.88001C15.879 3.07722 14.2217 2.6599 12.539 2.66658C11.1913 2.66918 9.85739 2.93818 8.61404 3.45811C7.37068 3.97803 6.24238 4.73864 5.29402 5.69617C4.34566 6.6537 3.59595 7.78927 3.08801 9.03757C2.58007 10.2859 2.32392 11.6223 2.33429 12.9699C2.34798 13.997 2.5062 15.017 2.80429 15.9999" stroke="black" stroke-miterlimit="10" stroke-linecap="square"/>
<path d="M7 23.9449C12.5287 31.6536 21 38.6669 21 38.6669C21 38.6669 29.4713 31.6536 35 23.9449" stroke="black" stroke-miterlimit="10" stroke-linecap="square"/>
<path d="M1 19.9999H13L17 13.3333L25 25.3333L29 19.9999H41" stroke="black" stroke-miterlimit="10" stroke-linecap="square"/>
</svg>
