<svg width="42" height="42" viewBox="0 0 42 42" fill="none" xmlns="http://www.w3.org/2000/svg">
<path d="M7.36293 10.9995C5.35474 10.9995 3.72656 9.37135 3.72656 7.36317C3.72656 5.35499 5.35474 3.72681 7.36293 3.72681C9.37111 3.72681 10.9993 5.35499 10.9993 7.36317C10.9993 9.37135 9.37111 10.9995 7.36293 10.9995Z" stroke="black" stroke-miterlimit="10" stroke-linecap="square"/>
<path d="M10.0909 38.2719H4.63636L3.72727 28.2719L1 27.3629V19.181C1 17.1729 2.62818 15.5447 4.63636 15.5447H10.0909C11.4127 15.5447 12.57 16.251 13.2064 17.3056" stroke="black" stroke-miterlimit="10"/>
<path d="M34.6364 10.9995C36.6445 10.9995 38.2727 9.37135 38.2727 7.36317C38.2727 5.35499 36.6445 3.72681 34.6364 3.72681C32.6282 3.72681 31 5.35499 31 7.36317C31 9.37135 32.6282 10.9995 34.6364 10.9995Z" stroke="black" stroke-miterlimit="10" stroke-linecap="square"/>
<path d="M31.9084 38.2719H37.363L38.2721 28.2719L40.9993 27.3629V19.181C40.9993 17.1729 39.3712 15.5447 37.363 15.5447H31.9084C30.5866 15.5447 29.4293 16.251 28.793 17.3056" stroke="black" stroke-miterlimit="10"/>
<path d="M20.9995 11.9091C17.9867 11.9091 15.5449 9.46727 15.5449 6.45455C15.5449 3.44182 17.9867 1 20.9995 1C24.0122 1 26.454 3.44182 26.454 6.45455C26.454 9.46727 24.0122 11.9091 20.9995 11.9091Z" stroke="black" stroke-miterlimit="10" stroke-linecap="square"/>
<path d="M25.5446 41.0008H16.4537L15.5446 30.0917L11.9082 29.1826V20.0917C11.9082 18.0835 13.5364 16.4553 15.5446 16.4553H26.4537C28.4618 16.4553 30.09 18.0835 30.09 20.0917V29.1826L26.4537 30.0917L25.5446 41.0008Z" stroke="black" stroke-miterlimit="10" stroke-linecap="square"/>
</svg>
