<svg width="40" height="42" viewBox="0 0 40 42" fill="none" xmlns="http://www.w3.org/2000/svg">
<path d="M15.9993 35.6666H8.66602V18.5932C8.66602 14.3852 11.812 10.9126 15.8807 10.3986" stroke="black" stroke-miterlimit="10"/>
<path d="M22.666 35.6666H29.9993V18.5932C29.9993 14.3852 26.8534 10.9126 22.7847 10.3986" stroke="black" stroke-miterlimit="10"/>
<path d="M17.334 22.6753V11.2786" stroke="black" stroke-miterlimit="10"/>
<path d="M21.334 22.6753V11.2786" stroke="black" stroke-miterlimit="10"/>
<path d="M14 6.33331H8" stroke="black" stroke-miterlimit="10" stroke-linecap="square"/>
<path d="M24.666 6.33331H30.666" stroke="black" stroke-miterlimit="10" stroke-linecap="square"/>
<path d="M22.6667 28.3333V37.6666C22.6667 39.5073 21.174 41 19.3333 41C17.4927 41 16 39.5073 16 37.6666V28.3333" stroke="black" stroke-miterlimit="10" stroke-linecap="square"/>
<path d="M19.3333 11.6667C22.2789 11.6667 24.6667 9.27885 24.6667 6.33333C24.6667 3.38781 22.2789 1 19.3333 1C16.3878 1 14 3.38781 14 6.33333C14 9.27885 16.3878 11.6667 19.3333 11.6667Z" stroke="black" stroke-miterlimit="10" stroke-linecap="square"/>
<path d="M19.334 22.3333C16.02 22.3333 13.334 25.0193 13.334 28.3333H25.334C25.334 25.0193 22.648 22.3333 19.334 22.3333Z" stroke="black" stroke-miterlimit="10" stroke-linecap="square"/>
</svg>
